<svg width="137" height="26" viewBox="0 0 137 26" fill="none" xmlns="http://www.w3.org/2000/svg">
<rect width="57" height="26" rx="2" fill="#5E81FE"/>
<path d="M19.073 7C19.433 7 19.7264 7.10667 19.953 7.32C20.1797 7.53333 20.293 7.81333 20.293 8.16C20.293 8.50667 20.1797 8.78667 19.953 9C19.7264 9.2 19.433 9.3 19.073 9.3H15.933V19.78C15.933 20.1267 15.8064 20.42 15.553 20.66C15.2997 20.8867 14.9864 21 14.613 21C14.2397 21 13.933 20.8867 13.693 20.66C13.453 20.42 13.333 20.1267 13.333 19.78V9.3H10.193C9.83305 9.3 9.53971 9.19333 9.31305 8.98C9.08638 8.76667 8.97305 8.48667 8.97305 8.14C8.97305 7.80667 9.08638 7.53333 9.31305 7.32C9.55305 7.10667 9.84638 7 10.193 7H19.073ZM33.3726 19.04C33.5459 19.1467 33.6792 19.2867 33.7726 19.46C33.8792 19.6333 33.9326 19.8133 33.9326 20C33.9326 20.24 33.8526 20.46 33.6926 20.66C33.4926 20.9 33.1859 21.02 32.7726 21.02C32.4526 21.02 32.1592 20.9467 31.8926 20.8C30.9326 20.2533 30.4526 19.14 30.4526 17.46C30.4526 16.98 30.2926 16.6 29.9726 16.32C29.6659 16.04 29.2192 15.9 28.6326 15.9H24.8926V19.78C24.8926 20.14 24.7926 20.4333 24.5926 20.66C24.4059 20.8867 24.1526 21 23.8326 21C23.4459 21 23.1059 20.8867 22.8126 20.66C22.5326 20.42 22.3926 20.1267 22.3926 19.78V8.22C22.3926 7.87333 22.5059 7.58667 22.7326 7.36C22.9726 7.12 23.2659 7 23.6126 7H29.3726C30.0659 7 30.7192 7.18667 31.3326 7.56C31.9459 7.93333 32.4326 8.44667 32.7926 9.1C33.1659 9.75333 33.3526 10.4867 33.3526 11.3C33.3526 11.9667 33.1726 12.62 32.8126 13.26C32.4526 13.8867 31.9859 14.3867 31.4126 14.76C32.2526 15.3467 32.7126 16.1333 32.7926 17.12C32.8326 17.3333 32.8526 17.54 32.8526 17.74C32.9059 18.1533 32.9592 18.4533 33.0126 18.64C33.0659 18.8133 33.1859 18.9467 33.3726 19.04ZM29.2726 13.84C29.5126 13.84 29.7459 13.7267 29.9726 13.5C30.1992 13.2733 30.3859 12.9733 30.5326 12.6C30.6792 12.2133 30.7526 11.8 30.7526 11.36C30.7526 10.9867 30.6792 10.6467 30.5326 10.34C30.3859 10.02 30.1992 9.76667 29.9726 9.58C29.7459 9.39333 29.5126 9.3 29.2726 9.3H24.8926V13.84H29.2726ZM45.9654 6.98C46.3121 6.98 46.5921 7.09333 46.8054 7.32C47.0187 7.54667 47.1254 7.84 47.1254 8.2V15.44C47.1254 16.5467 46.8921 17.5267 46.4254 18.38C45.9587 19.2333 45.3054 19.9 44.4654 20.38C43.6254 20.86 42.6654 21.1 41.5854 21.1C40.5054 21.1 39.5387 20.86 38.6854 20.38C37.8454 19.9 37.1921 19.2333 36.7254 18.38C36.2587 17.5267 36.0254 16.5467 36.0254 15.44V8.2C36.0254 7.85333 36.1454 7.56667 36.3854 7.34C36.6254 7.1 36.9321 6.98 37.3054 6.98C37.6254 6.98 37.9054 7.1 38.1454 7.34C38.3854 7.56667 38.5054 7.85333 38.5054 8.2V15.44C38.5054 16.08 38.6454 16.6533 38.9254 17.16C39.2054 17.6533 39.5787 18.0333 40.0454 18.3C40.5254 18.5667 41.0387 18.7 41.5854 18.7C42.1587 18.7 42.6921 18.5667 43.1854 18.3C43.6921 18.0333 44.0921 17.6533 44.3854 17.16C44.6921 16.6533 44.8454 16.08 44.8454 15.44V8.2C44.8454 7.84 44.9454 7.54667 45.1454 7.32C45.3454 7.09333 45.6187 6.98 45.9654 6.98Z" fill="white"/>
<path d="M74.4255 13.44C74.7721 13.44 75.0588 13.56 75.2855 13.8C75.5121 14.0267 75.6255 14.3133 75.6255 14.66V18.9C75.6255 19.3667 75.4188 19.7267 75.0055 19.98C73.6988 20.7933 72.2655 21.2 70.7055 21.2C69.3855 21.2 68.1655 20.88 67.0455 20.24C65.9255 19.5867 65.0388 18.7133 64.3855 17.62C63.7321 16.5133 63.4055 15.3067 63.4055 14C63.4055 12.6933 63.7321 11.4933 64.3855 10.4C65.0388 9.29333 65.9255 8.42 67.0455 7.78C68.1655 7.12667 69.3855 6.8 70.7055 6.8C72.0255 6.8 73.1721 7.06667 74.1455 7.6C74.3455 7.70667 74.4921 7.84667 74.5855 8.02C74.6921 8.19333 74.7455 8.38 74.7455 8.58C74.7455 8.91333 74.6321 9.20667 74.4055 9.46C74.1921 9.7 73.9255 9.82 73.6055 9.82C73.4055 9.82 73.1855 9.76667 72.9455 9.66C72.2255 9.35333 71.4788 9.2 70.7055 9.2C69.8521 9.2 69.0655 9.42 68.3455 9.86C67.6255 10.2867 67.0521 10.8667 66.6255 11.6C66.2121 12.3333 66.0055 13.1333 66.0055 14C66.0055 14.8667 66.2121 15.6667 66.6255 16.4C67.0521 17.1333 67.6255 17.72 68.3455 18.16C69.0655 18.5867 69.8521 18.8 70.7055 18.8C71.0788 18.8 71.4788 18.7667 71.9055 18.7C72.3321 18.6333 72.7055 18.5467 73.0255 18.44V15.84H71.1455C70.7988 15.84 70.5055 15.7267 70.2655 15.5C70.0388 15.2733 69.9255 14.9867 69.9255 14.64C69.9255 14.2933 70.0388 14.0067 70.2655 13.78C70.5055 13.5533 70.7988 13.44 71.1455 13.44H74.4255ZM89.0113 19.04C89.1846 19.1467 89.3179 19.2867 89.4113 19.46C89.5179 19.6333 89.5713 19.8133 89.5713 20C89.5713 20.24 89.4913 20.46 89.3313 20.66C89.1313 20.9 88.8246 21.02 88.4113 21.02C88.0913 21.02 87.7979 20.9467 87.5313 20.8C86.5713 20.2533 86.0913 19.14 86.0913 17.46C86.0913 16.98 85.9313 16.6 85.6113 16.32C85.3046 16.04 84.8579 15.9 84.2713 15.9H80.5313V19.78C80.5313 20.14 80.4313 20.4333 80.2313 20.66C80.0446 20.8867 79.7913 21 79.4712 21C79.0846 21 78.7446 20.8867 78.4513 20.66C78.1713 20.42 78.0313 20.1267 78.0313 19.78V8.22C78.0313 7.87333 78.1446 7.58667 78.3713 7.36C78.6113 7.12 78.9046 7 79.2513 7H85.0113C85.7046 7 86.3579 7.18667 86.9713 7.56C87.5846 7.93333 88.0713 8.44667 88.4313 9.1C88.8046 9.75333 88.9913 10.4867 88.9913 11.3C88.9913 11.9667 88.8113 12.62 88.4513 13.26C88.0913 13.8867 87.6246 14.3867 87.0513 14.76C87.8913 15.3467 88.3513 16.1333 88.4313 17.12C88.4713 17.3333 88.4913 17.54 88.4913 17.74C88.5446 18.1533 88.5979 18.4533 88.6513 18.64C88.7046 18.8133 88.8246 18.9467 89.0113 19.04ZM84.9113 13.84C85.1513 13.84 85.3846 13.7267 85.6113 13.5C85.8379 13.2733 86.0246 12.9733 86.1713 12.6C86.3179 12.2133 86.3913 11.8 86.3913 11.36C86.3913 10.9867 86.3179 10.6467 86.1713 10.34C86.0246 10.02 85.8379 9.76667 85.6113 9.58C85.3846 9.39333 85.1513 9.3 84.9113 9.3H80.5313V13.84H84.9113ZM104.446 14C104.446 15.32 104.153 16.5333 103.566 17.64C102.98 18.7333 102.166 19.6 101.126 20.24C100.1 20.88 98.9397 21.2 97.6464 21.2C96.3531 21.2 95.1864 20.88 94.1464 20.24C93.1197 19.6 92.3131 18.7333 91.7264 17.64C91.1531 16.5333 90.8664 15.32 90.8664 14C90.8664 12.68 91.1531 11.4733 91.7264 10.38C92.3131 9.27333 93.1197 8.4 94.1464 7.76C95.1864 7.12 96.3531 6.8 97.6464 6.8C98.9397 6.8 100.1 7.12 101.126 7.76C102.166 8.4 102.98 9.27333 103.566 10.38C104.153 11.4733 104.446 12.68 104.446 14ZM101.846 14C101.846 13.1067 101.666 12.3 101.306 11.58C100.946 10.8467 100.446 10.2667 99.8064 9.84C99.1664 9.41333 98.4464 9.2 97.6464 9.2C96.8331 9.2 96.1064 9.41333 95.4664 9.84C94.8397 10.2533 94.3464 10.8267 93.9864 11.56C93.6397 12.2933 93.4664 13.1067 93.4664 14C93.4664 14.8933 93.6397 15.7067 93.9864 16.44C94.3464 17.1733 94.8397 17.7533 95.4664 18.18C96.1064 18.5933 96.8331 18.8 97.6464 18.8C98.4464 18.8 99.1664 18.5867 99.8064 18.16C100.446 17.7333 100.946 17.16 101.306 16.44C101.666 15.7067 101.846 14.8933 101.846 14ZM116.682 6.98C117.029 6.98 117.309 7.09333 117.522 7.32C117.736 7.54667 117.842 7.84 117.842 8.2V15.44C117.842 16.5467 117.609 17.5267 117.142 18.38C116.676 19.2333 116.022 19.9 115.182 20.38C114.342 20.86 113.382 21.1 112.302 21.1C111.222 21.1 110.256 20.86 109.402 20.38C108.562 19.9 107.909 19.2333 107.442 18.38C106.976 17.5267 106.742 16.5467 106.742 15.44V8.2C106.742 7.85333 106.862 7.56667 107.102 7.34C107.342 7.1 107.649 6.98 108.022 6.98C108.342 6.98 108.622 7.1 108.862 7.34C109.102 7.56667 109.222 7.85333 109.222 8.2V15.44C109.222 16.08 109.362 16.6533 109.642 17.16C109.922 17.6533 110.296 18.0333 110.762 18.3C111.242 18.5667 111.756 18.7 112.302 18.7C112.876 18.7 113.409 18.5667 113.902 18.3C114.409 18.0333 114.809 17.6533 115.102 17.16C115.409 16.6533 115.562 16.08 115.562 15.44V8.2C115.562 7.84 115.662 7.54667 115.862 7.32C116.062 7.09333 116.336 6.98 116.682 6.98ZM126.624 7C127.304 7 127.95 7.20667 128.564 7.62C129.177 8.02 129.67 8.56667 130.044 9.26C130.417 9.94 130.604 10.6867 130.604 11.5C130.604 12.3 130.417 13.0467 130.044 13.74C129.67 14.4333 129.177 14.9867 128.564 15.4C127.95 15.8 127.304 16 126.624 16H123.144V19.78C123.144 20.14 123.037 20.4333 122.824 20.66C122.61 20.8867 122.33 21 121.984 21C121.65 21 121.377 20.8867 121.164 20.66C120.95 20.42 120.844 20.1267 120.844 19.78V8.22C120.844 7.87333 120.957 7.58667 121.184 7.36C121.424 7.12 121.717 7 122.064 7H126.624ZM126.624 13.72C126.877 13.72 127.124 13.6133 127.364 13.4C127.617 13.1867 127.817 12.9133 127.964 12.58C128.124 12.2333 128.204 11.8733 128.204 11.5C128.204 11.1267 128.124 10.7733 127.964 10.44C127.817 10.0933 127.617 9.82 127.364 9.62C127.124 9.40667 126.877 9.3 126.624 9.3H123.144V13.72H126.624Z" fill="#5E81FE"/>
</svg>
